<svg id="Layer_1" data-name="Layer 1" xmlns="http://www.w3.org/2000/svg" xmlns:xlink="http://www.w3.org/1999/xlink" viewBox="0 0 150 50"><defs><style>.cls-1{fill:#823589;}.cls-2{fill:url(#radial-gradient);}.cls-3{fill:url(#radial-gradient-2);}.cls-4{fill:#4c205b;}.cls-5{fill:#fff;}.cls-6{fill:#a154a1;}.cls-7{fill:#6d6e71;}.cls-8{fill:#682872;}</style><radialGradient id="radial-gradient" cx="22.63" cy="-7.05" r="23.22" gradientTransform="translate(13.59 -29.67) rotate(90) scale(1 1.28)" gradientUnits="userSpaceOnUse"><stop offset="0.82" stop-color="#a154a1"/><stop offset="0.89" stop-color="#823589"/></radialGradient><radialGradient id="radial-gradient-2" cx="9821.59" cy="-197.61" r="23.22" gradientTransform="translate(275.91 9877.47) rotate(-90) scale(1 1.28)" gradientUnits="userSpaceOnUse"><stop offset="0.82" stop-color="#5f286e"/><stop offset="0.89" stop-color="#823589"/></radialGradient></defs><title>byjus logo for svg</title><rect class="cls-1" x="3.63" y="5.57" width="37.69" height="37.69" rx="3.65"/><path class="cls-2" d="M37.67,5.57a3.65,3.65,0,0,1,3.65,3.66V21.59a2.18,2.18,0,0,1-2.18,2.18H5.82a2.19,2.19,0,0,1-2.19-2.18V9.23A3.66,3.66,0,0,1,7.29,5.57Z"/><path class="cls-3" d="M7.29,43.26a3.65,3.65,0,0,1-3.66-3.65V27.25a2.18,2.18,0,0,1,2.19-2.18H39.14a2.17,2.17,0,0,1,2.18,2.18V39.61a3.64,3.64,0,0,1-3.65,3.65Z"/><rect class="cls-1" x="4.84" y="6.78" width="35.28" height="35.28" rx="2.38"/><path class="cls-4" d="M28.05,34.13h0l-7.33,2.12a1.17,1.17,0,0,1-1.45-.8l-5.54-19.2a1.16,1.16,0,0,1,.8-1.44l7.58-2.19A4.74,4.74,0,0,1,27,14a5.22,5.22,0,0,1-.34,7.57,6.42,6.42,0,0,1,1.41,12.58Z"/><path class="cls-5" d="M29.11,20.66a6.67,6.67,0,0,0-.79-7.29,6.75,6.75,0,0,0-6.63-2.1l-7.78,2.25a2.33,2.33,0,0,0-1.6,2.89L18,36.07a2.34,2.34,0,0,0,2.9,1.6l7.83-2.26a8.05,8.05,0,0,0,5.35-6.29A7.93,7.93,0,0,0,29.11,20.66ZM28.05,34.13h0l-7.33,2.12a1.17,1.17,0,0,1-1.45-.8l-5.54-19.2a1.16,1.16,0,0,1,.8-1.44l7.59-2.2A4.76,4.76,0,0,1,27,14a5.23,5.23,0,0,1-.33,7.58,6.42,6.42,0,0,1,1.41,12.58Z"/><path class="cls-1" d="M30.33,29a5.92,5.92,0,0,0-5.86-5.92,5.06,5.06,0,0,0,.38-7.26,4.63,4.63,0,0,0-4.77-1.39l-6.34,1.83,5.53,19.17a1.17,1.17,0,0,0,1.45.8l5.2-1.5.08,0A5.92,5.92,0,0,0,30.33,29Z"/><path class="cls-1" d="M109.41,29.76c-5.37,0-8.49-3.24-8.49-9.68V9.19c0-1.59.89-2.53,2.2-2.53a2.23,2.23,0,0,1,2.2,2.53V19.75c0,4.33,1.4,5.71,4.09,5.71s4.09-1.38,4.09-5.71V9.19a2.23,2.23,0,0,1,2.19-2.53c1.32,0,2.2.94,2.2,2.53V20.08C117.89,26.52,114.78,29.76,109.41,29.76ZM60.09,17.55a5.55,5.55,0,0,0,2.77-4.76c0-3.78-2.65-6.47-8-6.47H48.73a2.06,2.06,0,0,0-2.19,2.17V27.71a2.07,2.07,0,0,0,2.19,2.17l6.08.06c6.95.06,9.24-2.93,9.24-6.59a6,6,0,0,0-4-5.71,0,0,0,0,1,0,0A.07.07,0,0,1,60.09,17.55Zm14.62-1.4L69.8,8a2.2,2.2,0,0,0-2-1.31,2.07,2.07,0,0,0-2.22,2,3.14,3.14,0,0,0,.58,1.8l6.31,10.13v6.78a2.28,2.28,0,0,0,2.17,2.53,2.24,2.24,0,0,0,2.23-2.53V20.57l6.31-10.13a3.14,3.14,0,0,0,.58-1.8,2.07,2.07,0,0,0-2.22-2,2.2,2.2,0,0,0-2,1.31Zm48-1.41a1.68,1.68,0,0,0,1.52-1.06A15.22,15.22,0,0,0,125.34,9c0-1.47-.67-2.38-2.26-2.38s-2.29,1.09-2.29,3v1.74C120.79,13.52,121.4,14.74,122.66,14.74Zm-40.81,9c0,2.1,1.86,6.07,7,6.07s7.63-3,7.63-8.45V9.19a2.23,2.23,0,0,0-2.2-2.53c-1.37,0-2.2.94-2.2,2.53V21.43c0,2.77-.94,4.09-3.11,4.12-3.69.06-2.1-3.85-4.73-4.06A2.15,2.15,0,0,0,81.85,23.72ZM56.27,15.51c-1.43.27-2.35.85-2.35,2.22s.89,2.17,2.32,2.35c2.47.28,3.33,1.13,3.33,3,0,1.73-1.44,2.68-4.18,2.68H50.9V10.35h4.85A2.51,2.51,0,0,1,58.5,13.1,2.33,2.33,0,0,1,56.27,15.51Zm74.57,8.42a3,3,0,0,0-2.05-1.28,2,2,0,0,0-2.07,2.16,3.17,3.17,0,0,0,.82,2A9.34,9.34,0,0,0,135,30.09c4.12,0,7.57-2.32,7.57-6.47,0-8.08-10.75-7.29-10.75-10.89,0-1.4.95-2.2,2.54-2.2a4.46,4.46,0,0,1,2.9.89c.79.61,1.4,1.8,2.71,1.8A1.94,1.94,0,0,0,142,11.39c0-1.59-1.59-3.08-3-3.88a9.27,9.27,0,0,0-4.76-1.19c-3.48.06-6.9,1.95-6.9,6.47,0,7.29,10.74,6,10.74,10.59,0,1.65-1.28,2.47-3.2,2.47A5.66,5.66,0,0,1,130.84,23.93Z"/><path class="cls-6" d="M103.12,7.07a2.23,2.23,0,0,1,2.2,2.53V9.19a2.23,2.23,0,0,0-2.2-2.53c-1.31,0-2.2.94-2.2,2.53V9.6C100.92,8,101.81,7.07,103.12,7.07Z"/><path class="cls-6" d="M105.32,20.16c0,4.33,1.4,5.7,4.09,5.7s4.09-1.37,4.09-5.7v-.41c0,4.33-1.41,5.71-4.09,5.71s-4.09-1.38-4.09-5.71Z"/><path class="cls-6" d="M131.82,12.91c0,.07,0,.15,0,.23,0,3.57,10.54,2.82,10.74,10.67,0-.06,0-.12,0-.19C142.56,15.68,132.18,16.31,131.82,12.91Z"/><path class="cls-6" d="M67.84,7.07a2.2,2.2,0,0,1,2,1.31l4.91,8.18,4.91-8.18a2.2,2.2,0,0,1,2-1.31A2.11,2.11,0,0,1,83.8,8.88V8.64a2.07,2.07,0,0,0-2.22-2,2.2,2.2,0,0,0-2,1.31l-4.91,8.18L69.8,8a2.2,2.2,0,0,0-2-1.31,2.07,2.07,0,0,0-2.22,2,1.93,1.93,0,0,0,0,.24A2.1,2.1,0,0,1,67.84,7.07Z"/><path class="cls-6" d="M128.79,23.06a3,3,0,0,1,2.05,1.28A5.66,5.66,0,0,0,135,26.26c1.92,0,3.2-.82,3.2-2.47a1.55,1.55,0,0,0,0-.22c-.09,1.52-1.35,2.28-3.19,2.28a5.66,5.66,0,0,1-4.12-1.92,3,3,0,0,0-2.05-1.28,2,2,0,0,0-2.07,2.16,1.09,1.09,0,0,0,0,.18A2,2,0,0,1,128.79,23.06Z"/><path class="cls-6" d="M134.32,6.73a9.27,9.27,0,0,1,4.76,1.19c1.31.76,2.82,2.16,2.94,3.68a1.49,1.49,0,0,0,0-.21c0-1.59-1.59-3.08-3-3.88a9.27,9.27,0,0,0-4.76-1.19c-3.48.06-6.9,1.95-6.9,6.47V13C127.53,8.63,130.89,6.79,134.32,6.73Z"/><path class="cls-6" d="M81.85,23.72a2.09,2.09,0,0,0,0,.24,2.14,2.14,0,0,1,2.37-2.06c2.63.21,1,4.12,4.73,4.06,2.17,0,3.11-1.35,3.11-4.12v-.41c0,2.77-.94,4.09-3.11,4.12-3.69.06-2.1-3.85-4.73-4.06A2.15,2.15,0,0,0,81.85,23.72Z"/><path class="cls-6" d="M115.69,6.66a2.23,2.23,0,0,0-2.19,2.53V9.6a2.23,2.23,0,0,1,2.19-2.53c1.32,0,2.2.94,2.2,2.53V9.19C117.89,7.6,117,6.66,115.69,6.66Z"/><path class="cls-6" d="M123.08,6.6c-1.62.06-2.29,1.09-2.29,3V10c0-1.93.67-3,2.29-3a2,2,0,0,1,2.25,2.17,1.41,1.41,0,0,0,0-.2C125.34,7.51,124.67,6.6,123.08,6.6Z"/><path class="cls-6" d="M94.27,6.66c-1.37,0-2.2.94-2.2,2.53V9.6c0-1.59.83-2.53,2.2-2.53a2.23,2.23,0,0,1,2.2,2.53V9.19A2.23,2.23,0,0,0,94.27,6.66Z"/><path class="cls-6" d="M48.73,6.73h6.11c5.25,0,7.91,2.57,8,6.23v-.17c0-3.78-2.65-6.47-8-6.47H48.73a2.06,2.06,0,0,0-2.19,2.17V8.9A2.06,2.06,0,0,1,48.73,6.73Z"/><path class="cls-6" d="M56.27,15.51c-1.43.27-2.35.85-2.35,2.22,0,.08,0,.15,0,.22.09-1.23,1-1.77,2.34-2a2.33,2.33,0,0,0,2.23-2.41c0-.08,0-.15,0-.22C58.42,14.6,57.58,15.27,56.27,15.51Z"/><path class="cls-6" d="M55.39,26.2c2.74,0,4.18-.95,4.18-2.68,0-.1,0-.18,0-.27-.08,1.65-1.51,2.54-4.17,2.54H50.9v.41Z"/><path class="cls-6" d="M60.09,17.64a0,0,0,0,1,0,0,.07.07,0,0,1,0-.05h0l-.25.19a.13.13,0,0,0,0,.22l.22.09a6,6,0,0,1,4,5.56v-.26a6.8,6.8,0,0,0-.3-2A6.16,6.16,0,0,0,60.09,17.64Z"/><path class="cls-7" d="M46.38,34.53a.61.61,0,0,1,.19-.44.64.64,0,0,1,.45-.18h5.25a.61.61,0,0,1,.44.19.62.62,0,0,1,0,.91.6.6,0,0,1-.44.18h-1.9v6.2a.67.67,0,0,1-.22.51.74.74,0,0,1-1,0,.73.73,0,0,1-.2-.51v-6.2H47a.58.58,0,0,1-.45-.19A.63.63,0,0,1,46.38,34.53Z"/><path class="cls-7" d="M54,41.47v-7a.65.65,0,0,1,.19-.45.69.69,0,0,1,.49-.18.59.59,0,0,1,.44.19.61.61,0,0,1,.19.44V37a2.66,2.66,0,0,1,.88-.67A2.6,2.6,0,0,1,57.38,36a1.91,1.91,0,0,1,1.41.48,1.88,1.88,0,0,1,.48,1.39v3.59a.6.6,0,0,1-.19.45.65.65,0,0,1-.92,0,.6.6,0,0,1-.19-.45V38.35a1.16,1.16,0,0,0-.31-.92,1.35,1.35,0,0,0-.89-.26,1.67,1.67,0,0,0-.84.22,1.85,1.85,0,0,0-.64.56v3.52a.65.65,0,0,1-.66.64.62.62,0,0,1-.46-.19A.64.64,0,0,1,54,41.47Z"/><path class="cls-7" d="M60.55,39.09a3.26,3.26,0,0,1,.38-1.55A2.9,2.9,0,0,1,63.54,36a2.77,2.77,0,0,1,1.74.56,2.9,2.9,0,0,1,1,1.53,3,3,0,0,1,.15.79.65.65,0,0,1-.64.63H61.92a1.59,1.59,0,0,0,.56,1.08,1.88,1.88,0,0,0,1.29.43,3,3,0,0,0,1.32-.3.76.76,0,0,1,.27,0,.55.55,0,0,1,.37.15.48.48,0,0,1,.17.38.57.57,0,0,1-.24.44,1.94,1.94,0,0,1-.61.31,6.11,6.11,0,0,1-.74.17,4.25,4.25,0,0,1-.67.06,3.05,3.05,0,0,1-2.22-.86A3,3,0,0,1,60.55,39.09Zm1.35-.47h3.27a1.45,1.45,0,0,0-.11-.5,1.5,1.5,0,0,0-.28-.46,1.23,1.23,0,0,0-.51-.36,1.86,1.86,0,0,0-.73-.13,1.54,1.54,0,0,0-1.16.44A1.71,1.71,0,0,0,61.9,38.62Z"/><path class="cls-7" d="M70.87,41.17V34.54a.67.67,0,0,1,.21-.49.7.7,0,0,1,.52-.21.69.69,0,0,1,.5.21.66.66,0,0,1,.22.49v6.22h3a.6.6,0,0,1,.44.18.58.58,0,0,1,.19.44.63.63,0,0,1-.19.47.58.58,0,0,1-.44.19H71.75a.85.85,0,0,1-.62-.26A.81.81,0,0,1,70.87,41.17Z"/><path class="cls-7" d="M76.59,39.09A3.26,3.26,0,0,1,77,37.54,2.9,2.9,0,0,1,79.58,36a2.77,2.77,0,0,1,1.74.56,3,3,0,0,1,1,1.53,3,3,0,0,1,.15.79.65.65,0,0,1-.64.63H78a1.65,1.65,0,0,0,.57,1.08,1.88,1.88,0,0,0,1.29.43,3,3,0,0,0,1.32-.3.75.75,0,0,1,.26,0,.55.55,0,0,1,.38.15.48.48,0,0,1,.17.38.57.57,0,0,1-.24.44,1.94,1.94,0,0,1-.61.31,6.58,6.58,0,0,1-.74.17,4.27,4.27,0,0,1-.68.06,3,3,0,0,1-3.08-3.1Zm1.35-.47h3.27a1.45,1.45,0,0,0-.11-.5,1.72,1.72,0,0,0-.28-.46,1.3,1.3,0,0,0-.51-.36,1.86,1.86,0,0,0-.73-.13,1.54,1.54,0,0,0-1.16.44A1.71,1.71,0,0,0,77.94,38.62Z"/><path class="cls-7" d="M83.38,40.24a2,2,0,0,1,.18-.87,1.72,1.72,0,0,1,.49-.6,2.28,2.28,0,0,1,1.4-.45,3.14,3.14,0,0,1,1.08.19,2,2,0,0,1,.8.57v-.87a.91.91,0,0,0-.38-.76,1.56,1.56,0,0,0-1-.28,2.6,2.6,0,0,0-1.4.38.48.48,0,0,1-.28.08.52.52,0,0,1-.35-.14.47.47,0,0,1-.16-.37.4.4,0,0,1,.1-.28,2,2,0,0,1,1-.62A4.32,4.32,0,0,1,86.18,36a3.83,3.83,0,0,1,.93.11,2.53,2.53,0,0,1,.78.36,1.58,1.58,0,0,1,.54.67,2.33,2.33,0,0,1,.2,1v3.33a.6.6,0,0,1-.19.45.61.61,0,0,1-.45.19h-.08a.64.64,0,0,1-.38-.15.49.49,0,0,1-.2-.44v-.11a2.22,2.22,0,0,1-.82.58,2.82,2.82,0,0,1-1.06.2,2.1,2.1,0,0,1-.74-.13,2.12,2.12,0,0,1-.66-.36,1.76,1.76,0,0,1-.49-.61A2,2,0,0,1,83.38,40.24Zm1.34,0a.88.88,0,0,0,.35.74,1.32,1.32,0,0,0,.87.29,2.17,2.17,0,0,0,.81-.16,1.36,1.36,0,0,0,.58-.44v-.88a1.36,1.36,0,0,0-.58-.44,2.38,2.38,0,0,0-.81-.14,1.35,1.35,0,0,0-.88.28A.9.9,0,0,0,84.72,40.26Z"/><path class="cls-7" d="M90.28,41.47V36.71a.58.58,0,0,1,.19-.44.69.69,0,0,1,.48-.19.62.62,0,0,1,.45.2.65.65,0,0,1,.18.46v.31a1.88,1.88,0,0,1,1.41-1,.53.53,0,0,1,.41.17.54.54,0,0,1,.16.41.65.65,0,0,1-.18.48.72.72,0,0,1-.45.22,1.78,1.78,0,0,0-1.35.72v3.4a.58.58,0,0,1-.19.44.6.6,0,0,1-.45.19h0a.58.58,0,0,1-.45-.19A.6.6,0,0,1,90.28,41.47Z"/><path class="cls-7" d="M94.52,41.47V36.71a.58.58,0,0,1,.19-.44.66.66,0,0,1,.48-.19.61.61,0,0,1,.44.19.59.59,0,0,1,.19.44V37a2.68,2.68,0,0,1,.88-.68A2.65,2.65,0,0,1,97.9,36a1.7,1.7,0,0,1,1.9,1.89v3.57a.61.61,0,0,1-.2.45.62.62,0,0,1-.46.19.63.63,0,0,1-.46-.18.62.62,0,0,1-.19-.46V38.38a1.21,1.21,0,0,0-.3-.93,1.26,1.26,0,0,0-.88-.28,1.72,1.72,0,0,0-.86.22,1.82,1.82,0,0,0-.63.56v3.52a.6.6,0,0,1-.19.45.62.62,0,0,1-.46.19.63.63,0,0,1-.65-.64Z"/><path class="cls-7" d="M101.28,34.63a.76.76,0,0,1,.24-.56.79.79,0,0,1,.57-.23.81.81,0,0,1,.57.23.79.79,0,0,1,.23.56.8.8,0,0,1-.8.81.76.76,0,0,1-.57-.24A.75.75,0,0,1,101.28,34.63Zm.16,6.84V36.71a.58.58,0,0,1,.19-.44.69.69,0,0,1,.48-.19.61.61,0,0,1,.44.19.59.59,0,0,1,.19.44v4.76a.6.6,0,0,1-.19.45.62.62,0,0,1-.46.19.59.59,0,0,1-.46-.19A.6.6,0,0,1,101.44,41.47Z"/><path class="cls-7" d="M104.38,41.47V36.71a.61.61,0,0,1,.19-.44.7.7,0,0,1,.49-.19.65.65,0,0,1,.63.63V37a2.68,2.68,0,0,1,.88-.68,2.63,2.63,0,0,1,1.19-.27,1.7,1.7,0,0,1,1.9,1.89v3.57a.6.6,0,0,1-.19.45.64.64,0,0,1-.47.19.61.61,0,0,1-.45-.18.62.62,0,0,1-.19-.46V38.38a1.17,1.17,0,0,0-.31-.93,1.21,1.21,0,0,0-.87-.28,1.69,1.69,0,0,0-.86.22,1.82,1.82,0,0,0-.63.56v3.52a.64.64,0,0,1-.19.45.63.63,0,0,1-.47.19.62.62,0,0,1-.46-.19A.64.64,0,0,1,104.38,41.47Z"/><path class="cls-7" d="M110.94,39a3.17,3.17,0,0,1,.73-2.21,2.39,2.39,0,0,1,1.88-.8,2.29,2.29,0,0,1,1,.24,2.47,2.47,0,0,1,.84.71v-.23a.66.66,0,0,1,.19-.46.69.69,0,0,1,.48-.19.65.65,0,0,1,.64.65v5a3.08,3.08,0,0,1-.18,1.09,2.28,2.28,0,0,1-.47.78,2.33,2.33,0,0,1-.69.49,3.38,3.38,0,0,1-.82.26,5,5,0,0,1-.88.08,5.09,5.09,0,0,1-1.3-.17,1.87,1.87,0,0,1-1-.55.56.56,0,0,1-.12-.33.51.51,0,0,1,.17-.39.54.54,0,0,1,.4-.16.57.57,0,0,1,.29.07,3,3,0,0,0,1.52.37,2.45,2.45,0,0,0,.62-.08,1.8,1.8,0,0,0,.55-.25,1.06,1.06,0,0,0,.4-.48,1.64,1.64,0,0,0,.15-.73v-.66a2.56,2.56,0,0,1-.83.71,2.23,2.23,0,0,1-1,.26,2.43,2.43,0,0,1-1.88-.8A3.15,3.15,0,0,1,110.94,39Zm1.79-1.34a2.24,2.24,0,0,0,0,2.69,1.52,1.52,0,0,0,1.2.51,1.8,1.8,0,0,0,.86-.22,1.67,1.67,0,0,0,.63-.57V37.94a1.63,1.63,0,0,0-.63-.55,1.8,1.8,0,0,0-.86-.22A1.52,1.52,0,0,0,112.73,37.68Z"/><path class="cls-7" d="M121,41.33a.45.45,0,0,1,.07-.27l2.53-6.45a1.13,1.13,0,0,1,.45-.56,1.19,1.19,0,0,1,.68-.21h.06a1.27,1.27,0,0,1,.68.19,1.24,1.24,0,0,1,.48.58l2.55,6.45a1.12,1.12,0,0,1,.05.27.81.81,0,0,1-.22.54.74.74,0,0,1-.56.24.73.73,0,0,1-.43-.13.74.74,0,0,1-.28-.35l-.43-1.14h-3.7l-.44,1.14a.64.64,0,0,1-.28.35.73.73,0,0,1-.43.13.77.77,0,0,1-.56-.23A.82.82,0,0,1,121,41.33Zm2.33-2.12h2.89l-1.44-3.83Z"/><path class="cls-7" d="M129.72,43.73v-7a.61.61,0,0,1,.19-.44.7.7,0,0,1,.49-.19.61.61,0,0,1,.44.19.59.59,0,0,1,.19.44V37a2.26,2.26,0,0,1,.82-.69,2.3,2.3,0,0,1,1.06-.25,2.38,2.38,0,0,1,1.88.82,3.4,3.4,0,0,1,.71,2.26,3.36,3.36,0,0,1-.72,2.27,2.36,2.36,0,0,1-1.87.83,2.3,2.3,0,0,1-1-.24,2.57,2.57,0,0,1-.84-.71v2.49a.6.6,0,0,1-.2.44.64.64,0,0,1-.46.19.66.66,0,0,1-.46-.19A.63.63,0,0,1,129.72,43.73ZM131,40.25a1.72,1.72,0,0,0,.63.55,1.85,1.85,0,0,0,.86.23,1.48,1.48,0,0,0,1.19-.54,2.12,2.12,0,0,0,.45-1.4,2.06,2.06,0,0,0-.45-1.38,1.48,1.48,0,0,0-1.19-.54,1.83,1.83,0,0,0-.86.22A1.65,1.65,0,0,0,131,38Z"/><path class="cls-7" d="M136.78,43.73v-7a.58.58,0,0,1,.19-.44.66.66,0,0,1,.48-.19.61.61,0,0,1,.44.19.59.59,0,0,1,.19.44V37a2.22,2.22,0,0,1,.83-.69A2.26,2.26,0,0,1,140,36a2.38,2.38,0,0,1,1.88.82,3.92,3.92,0,0,1,0,4.53,2.39,2.39,0,0,1-1.88.83,2.33,2.33,0,0,1-1-.24,2.57,2.57,0,0,1-.84-.71v2.49a.59.59,0,0,1-.19.44.68.68,0,0,1-.46.19.64.64,0,0,1-.46-.19A.59.59,0,0,1,136.78,43.73Zm1.3-3.48a1.76,1.76,0,0,0,.64.55,1.78,1.78,0,0,0,.85.23,1.48,1.48,0,0,0,1.19-.54,2.07,2.07,0,0,0,.46-1.4,2,2,0,0,0-.46-1.38,1.48,1.48,0,0,0-1.19-.54,1.77,1.77,0,0,0-.85.22,1.69,1.69,0,0,0-.64.56Z"/><path class="cls-8" d="M143.23,6.55V6.34h1.19v.21h-.49V8.06h-.21V6.55Zm1.47,1.51V6.34H145l.5,1.25.5-1.25h.34V8.06h-.22V6.64l-.59,1.42h-.06l-.58-1.42V8.06Z"/></svg>